<svg width="1200" height="1200" viewBox="0 0 1200 1200" fill="none" xmlns="http://www.w3.org/2000/svg">
<mask id="mask0_409_3640" style="mask-type:alpha" maskUnits="userSpaceOnUse" x="0" y="0" width="1197" height="1197">
<circle cx="598.033" cy="598.033" r="598.033" fill="#D9D9D9"/>
</mask>
<g mask="url(#mask0_409_3640)">
<path d="M925.883 1091.76C923.138 1093.73 920.001 1095.69 917.256 1097.65C914.118 1099.61 911.373 1101.57 908.236 1103.14C905.491 1104.71 903.138 1106.27 900.393 1107.84C900.001 1108.24 899.609 1108.24 899.216 1108.63C890.197 1114.12 880.785 1119.22 871.373 1123.92C868.628 1125.49 865.491 1127.06 862.746 1128.24C862.746 1128.24 862.354 1128.63 861.962 1128.63C858.824 1130.2 855.687 1131.76 852.55 1133.33C846.275 1136.47 839.609 1139.22 833.334 1141.96C830.197 1143.53 826.667 1144.71 823.53 1145.88C820.393 1147.06 816.864 1148.63 813.726 1149.8C810.589 1150.98 807.06 1152.55 803.922 1153.73C803.922 1153.73 803.922 1153.73 803.53 1153.73C800.393 1154.9 796.864 1156.08 793.726 1157.25C786.667 1159.61 779.216 1161.96 772.158 1164.31C769.805 1165.1 767.06 1165.88 764.707 1166.67C757.256 1169.02 749.805 1170.98 742.354 1172.55C739.609 1173.33 736.864 1173.73 733.726 1174.51C726.667 1176.08 719.216 1177.65 712.158 1179.22C710.589 1179.61 709.413 1179.61 707.844 1180C705.491 1180.39 702.746 1180.78 700.393 1181.18C696.864 1181.57 693.726 1182.35 690.197 1182.74C688.628 1183.14 687.06 1183.14 685.491 1183.53C683.53 1183.92 681.177 1184.31 678.824 1184.31C672.55 1185.1 665.883 1185.88 659.609 1186.67C657.648 1187.06 655.295 1187.06 653.334 1187.45H652.942C650.197 1187.84 647.452 1187.84 644.707 1188.24C641.962 1188.63 639.217 1188.63 636.471 1188.63C634.903 1188.63 632.942 1189.02 631.373 1189.02C628.236 1189.02 625.491 1189.41 622.746 1189.41C618.824 1189.41 615.295 1189.8 611.373 1189.8C607.452 1189.8 603.922 1189.8 600.001 1189.8C597.256 1189.8 594.511 1189.8 591.766 1189.8C426.275 1187.45 277.648 1117.25 171.373 1005.88C171.373 1005.88 171.373 1005.49 170.981 1005.49C159.216 994.902 169.413 938.431 216.864 902.745C276.471 857.647 419.217 829.412 419.217 829.412C419.217 829.412 474.511 820.392 679.609 863.137C799.609 888.235 890.981 924.706 941.962 1023.53C952.55 1043.92 963.138 1075.29 925.883 1091.76Z" fill="white"/>
<path d="M680.785 858.823C756.079 874.118 836.471 890.588 898.432 940.392C919.216 957.255 932.942 981.961 944.315 1005.88C949.805 1017.65 955.295 1029.8 959.609 1042.75C961.962 1051.37 965.491 1061.18 963.53 1071.37C963.138 1074.12 960.785 1077.65 958.824 1079.61C949.805 1088.63 940.001 1094.12 930.197 1101.18C872.55 1141.18 806.275 1169.41 737.648 1184.31C584.707 1217.65 419.216 1191.76 284.707 1111.37C240.001 1084.31 198.824 1051.37 163.53 1012.55C159.609 1007.84 159.609 1000 159.609 994.902C160.001 983.137 163.138 971.765 167.06 961.176C176.471 936.863 188.628 912.549 209.413 895.686C224.315 885.49 240.393 876.863 256.864 869.804C308.628 847.843 363.138 832.549 419.216 826.274C423.922 825.882 424.707 832.549 420.001 833.333C366.275 844.314 312.942 860.784 263.138 883.137C245.099 892.157 225.883 900 211.373 914.118C197.648 929.02 187.844 947.451 180.001 966.274C174.903 977.647 171.373 995.686 172.942 1004.71C197.648 1034.12 226.667 1060 258.04 1082.35C429.805 1202.35 690.589 1210.2 873.334 1110.2C889.805 1101.18 905.883 1090.98 921.177 1080.39C928.628 1075.29 936.471 1070.98 942.354 1065.1C942.746 1064.71 942.354 1065.1 942.354 1065.49C942.354 1065.88 941.962 1066.27 941.962 1066.27C942.354 1061.57 940.785 1055.29 938.824 1049.02C931.765 1026.27 920.393 1002.35 908.236 981.569C889.02 950.588 856.471 930.98 823.53 915.294C800.785 904.706 776.864 896.471 752.55 888.627C728.236 880.784 703.53 874.118 678.824 868.235C672.55 866.667 674.511 857.647 680.785 858.823Z" fill="black"/>
<path d="M979.606 1147.45C972.155 1089.41 939.214 991.764 919.214 965.489C897.253 936.862 888.234 927.842 814.9 903.136C810.979 883.528 796.469 834.117 779.214 813.332C752.94 773.724 681.175 764.705 659.606 769.411C659.606 769.411 543.528 728.626 409.802 728.626C367.449 738.038 318.43 757.254 291.763 797.646C273.724 824.313 294.116 832.94 285.096 857.254C282.744 863.528 227.842 894.901 205.489 913.724C195.293 921.96 183.92 942.744 176.077 969.803C160.391 1025.1 177.253 1101.57 157.645 1168.23C119.998 1296.86 43.5278 1335.29 43.5278 1335.29H1056.86C1056.08 1334.9 995.685 1269.8 979.606 1147.45Z" fill="white"/>
<path d="M973.725 1148.24C965.882 1096.86 950.196 1045.88 930.196 998.04C920.392 974.902 905.49 952.549 884.706 938.824C874.118 932.157 862.353 927.059 850.196 921.961C838.039 917.255 825.49 912.941 813.333 908.628C811.373 907.843 809.804 906.275 809.412 904.314C807.843 896.471 805.882 889.02 803.529 881.177C793.333 849.412 782.353 814.118 752.549 795.687C729.804 781.961 702.745 775.294 676.471 774.118C671.373 774.118 665.882 774.118 661.176 774.902H659.608C659.216 774.902 658.431 774.902 658.039 774.51C639.216 765.49 618.431 760 598.039 754.51C536.863 740.392 472.941 734.51 410.196 734.118C371.765 743.138 318.039 764.314 294.51 803.53C290.588 809.804 288.627 816.079 289.412 823.138C290.196 830.981 292.941 839.608 290.98 847.843C290.196 851.373 289.412 855.294 287.843 858.432C284.706 862.745 279.608 865.49 275.686 868.236C255.294 881.569 234.51 893.334 214.902 907.059C208.235 911.765 201.961 916.079 197.255 922.745C183.529 942.353 175.294 965.883 171.765 989.412C165.49 1037.26 171.765 1085.88 165.49 1133.73C158.431 1181.57 140 1227.84 114.118 1268.63C96.0784 1296.08 74.1176 1321.57 46.2745 1339.22L43.5294 1328.24H1056.86L1052.55 1338.04C1040.78 1324.71 1031.37 1310.2 1022.75 1294.9C996.078 1250.2 980.392 1199.61 973.725 1148.24ZM985.49 1146.67C989.804 1180 998.039 1212.94 1010.59 1244.31C1023.14 1275.29 1038.82 1305.49 1060.78 1330.98C1063.92 1334.51 1061.18 1341.18 1056.47 1340.78H43.1372C40 1340.78 37.2549 1338.04 37.2549 1334.9C37.2549 1332.55 38.4314 1330.59 40.3921 1329.8C46.6666 1326.27 52.9412 1321.18 58.8235 1316.08C110.196 1269.8 142.353 1201.18 152.941 1132.94C161.961 1069.02 145.098 1000 173.725 939.216C180.392 925.098 188.627 910.196 201.961 901.177C226.274 883.138 252.941 869.804 276.863 852.157C277.255 852.157 277.255 851.765 277.255 851.765C276.863 852.157 276.471 852.941 276.471 853.334C278.824 847.843 279.608 843.138 278.824 836.863C277.647 829.02 275.686 818.432 278.431 810.196C279.608 805.491 281.961 801.177 284.314 797.647C312.549 755.294 362.353 736.471 409.804 725.883C423.137 726.275 436.863 723.922 450.196 723.922C468.627 723.922 487.451 726.667 505.882 729.02C558.824 737.255 609.804 751.373 661.961 762.745L658.431 762.353C670.588 760 681.961 761.177 693.725 762.745C769.02 774.118 794.51 807.059 814.902 877.255C817.255 885.098 819.216 892.941 821.176 901.177L817.255 896.471C854.902 909.804 897.255 921.961 921.176 956.863C929.804 967.451 936.078 980 941.569 992.549C961.569 1042.75 977.255 1093.33 985.49 1146.67Z" fill="black"/>
<path d="M361.569 889.413C390.589 951.374 435.687 1003.92 489.413 1045.49C491.373 1047.06 489.413 1050.2 487.06 1049.02C439.217 1026.28 398.824 987.452 374.903 940.394C367.06 924.707 360.393 907.844 358.04 890.197C357.256 888.237 360.393 887.452 361.569 889.413Z" fill="black"/>
<path d="M820.785 902.354C821.962 967.844 795.295 1034.9 744.315 1077.26C743.138 1078.43 741.57 1078.04 740.393 1076.86C739.217 1075.69 739.609 1074.12 740.785 1072.94C752.158 1061.96 763.53 1050.59 772.158 1037.26C790.197 1011.37 801.178 980.785 806.276 949.805C808.629 934.511 810.197 918.04 809.021 902.746C808.629 895.295 820.393 894.511 820.785 902.354Z" fill="black"/>
<path d="M589.804 1058.04C580.784 1089.8 573.333 1124.31 577.647 1157.26C578.823 1164.71 567.451 1166.67 565.882 1158.82C563.922 1140.78 566.274 1123.14 569.412 1105.88C572.941 1088.63 577.255 1072.16 583.137 1055.69C584.706 1051.77 591.372 1053.73 589.804 1058.04Z" fill="black"/>
<path d="M714.51 1052.16C727.451 1080 736.471 1109.02 743.53 1138.43C744.314 1141.57 742.353 1144.71 739.216 1145.49C736.079 1146.27 732.941 1144.31 732.157 1141.18C728.235 1119.22 723.137 1097.26 716.079 1075.69C713.726 1068.63 711.373 1061.57 708.628 1054.51C707.059 1050.98 712.549 1048.24 714.51 1052.16Z" fill="black"/>
<path d="M293.333 855.686C307.843 934.902 363.529 1001.96 430.588 1044.71C453.333 1059.22 477.647 1071.76 502.745 1081.96C504.314 1082.75 505.098 1084.31 504.314 1085.88C503.922 1087.45 501.961 1088.24 500.784 1087.45C474.902 1078.04 449.804 1066.27 426.275 1052.16C378.431 1023.92 336.471 984.706 308.235 936.863C293.726 912.157 282.353 886.275 276.863 858.039C276.078 853.333 279.216 849.02 283.922 848.235C288.235 847.059 292.941 850.588 293.333 855.686Z" fill="black"/>
<path d="M566.273 1165.88C555.292 1164.71 547.449 1154.51 549.802 1143.53L554.116 1122.75C555.684 1114.51 563.528 1108.63 571.763 1109.8C579.998 1110.59 586.665 1117.65 586.665 1126.27V1147.45C587.057 1158.43 577.645 1167.06 566.273 1165.88Z" fill="black"/>
<path d="M747.059 1151.37C736.471 1155.29 725.098 1149.02 722.353 1138.04L717.255 1117.26C715.294 1109.02 719.608 1100.78 727.843 1097.65C735.686 1094.9 744.706 1098.43 748.235 1105.88L757.647 1125.1C762.353 1135.69 757.647 1147.84 747.059 1151.37Z" fill="black"/>
<path d="M928.235 1139.61C928.235 1139.61 950.196 1262.75 941.569 1334.9" stroke="black" stroke-width="5.1257" stroke-miterlimit="10" stroke-linecap="round" stroke-linejoin="round"/>
<path d="M416.077 841.569C410.587 825.883 408.234 809.805 409.41 793.334C409.41 791.765 410.587 790.981 412.156 790.981C413.332 790.981 414.508 792.157 414.508 793.334C415.685 808.236 419.999 823.53 427.058 836.471C430.587 844.314 418.822 849.412 416.077 841.569Z" fill="black"/>
<path d="M681.175 862.354C670.194 837.648 643.136 825.099 619.214 816.471C604.312 811.765 587.841 808.236 572.155 805.883C534.116 800.001 480.39 790.981 442.351 787.059C441.959 787.059 441.959 786.275 442.351 786.275C453.332 785.099 464.312 785.099 475.292 785.099C508.234 785.883 541.175 789.412 573.724 794.51C606.273 799.608 641.175 809.412 665.881 832.942C673.724 841.177 680.783 850.589 682.743 861.961C683.136 863.138 681.567 863.53 681.175 862.354Z" fill="black"/>
<path d="M717.644 963.138C709.409 1003.53 656.076 1027.84 566.272 991.373C472.939 953.726 432.546 863.922 422.35 837.255C477.644 733.726 439.213 661.961 439.213 661.961C566.664 650.981 678.037 800 678.037 800L695.292 873.726C696.86 880 699.997 885.491 704.703 889.412C712.939 903.922 722.743 937.255 717.644 963.138Z" fill="white"/>
<path d="M420.391 838.432C427.842 827.059 432.548 813.726 435.685 800.785C441.568 773.726 443.529 746.275 443.921 718.824V708.628C442.744 698.432 439.215 687.844 435.293 678.432C430.195 665.883 448.627 658.04 454.509 670.589C455.293 672.157 455.293 674.902 455.293 676.471C456.47 729.804 458.823 798.432 425.097 842.746C422.744 845.099 418.038 841.569 420.391 838.432Z" fill="black"/>
<path d="M682.351 799.216C688.233 802.746 690.194 807.452 690.978 812.158C693.331 821.569 692.547 831.766 694.9 841.569C696.861 850.981 702.743 860.001 704.312 869.805C706.272 880.001 712.155 901.569 714.508 912.158C715.292 914.511 713.723 917.256 710.978 917.648C709.41 918.04 708.233 917.648 707.057 916.864C701.959 912.55 699.606 908.236 696.469 902.746C691.371 893.334 687.841 884.707 684.704 874.118C681.959 864.707 683.135 854.511 680.782 844.707C678.821 835.295 673.331 826.275 671.37 816.471C670.194 811.765 669.802 806.667 673.331 800.785C675.684 798.432 679.606 797.648 682.351 799.216Z" fill="black"/>
<path d="M710.587 902.745C635.685 898.824 574.509 875.294 514.901 769.02C565.097 813.334 624.313 830.196 686.666 838.04L694.901 874.118C696.47 880.392 705.882 898.824 710.587 902.745Z" fill="black"/>
<path d="M707.452 888.236C720.785 913.334 728.628 944.706 720.393 972.549C714.118 992.157 696.079 1006.67 676.471 1012.16C630.981 1024.31 578.432 1005.1 538.04 983.53C488.236 955.687 451.373 909.02 427.844 858.04C426.275 854.118 431.765 850.981 434.118 854.902C442.354 871.373 451.765 887.451 462.354 901.961C472.942 916.863 485.099 930.589 498.824 942.745C538.824 978.824 592.942 1001.18 647.06 1001.18C702.746 999.608 723.922 970.196 710.981 916.079C709.02 907.451 705.883 898.432 701.569 890.981C699.216 887.843 705.099 884.314 707.452 888.236Z" fill="black"/>
<path d="M859.215 417.255C866.274 450.196 869.803 476.863 850.587 564.706C831.764 652.157 877.646 670.196 769.019 810.196C724.705 867.451 617.254 851.373 530.195 792.157C500.783 772.157 488.234 720.785 466.274 684.314C449.019 655.687 441.176 685.49 418.431 660.785C387.45 627.059 350.195 559.216 368.627 439.216C398.431 244.706 552.548 221.961 666.666 243.53C781.568 265.49 840.391 330.588 859.215 417.255Z" fill="white"/>
<path d="M438.038 695.686C429.019 680.392 417.254 667.059 406.274 652.941C395.685 638.432 387.058 622.353 379.999 605.883C333.333 491.373 351.372 330.196 465.882 262.745C513.333 235.294 570.587 228.628 623.921 232.941C738.038 241.177 842.744 293.726 867.45 414.51C880.784 467.843 862.744 522.745 852.548 574.902C847.842 600.785 851.764 627.451 851.372 654.118C850.98 681.177 843.529 708.235 833.333 733.334C827.058 750.588 816.078 765.882 804.705 780C785.882 802.745 767.058 825.883 743.136 843.53C737.646 847.451 727.842 849.412 721.176 850.196C702.744 852.941 684.705 853.726 666.274 852.549C594.117 849.412 516.862 814.51 487.842 744.706C486.666 741.961 490.587 740 492.156 742.353C529.803 801.961 598.823 831.373 667.45 835.294C688.627 836.471 710.195 836.079 730.98 831.765C741.176 826.667 750.195 817.647 758.823 809.412C779.999 788.235 801.568 765.49 816.862 739.608C835.293 704.706 845.489 666.667 842.352 627.059C841.568 609.412 841.176 590.981 844.705 573.334C847.842 555.686 851.764 538.824 854.117 520.785C856.47 503.53 857.646 485.883 857.646 468.628C855.685 418.039 839.215 365.883 807.058 326.667C736.078 238.432 568.235 215.294 473.725 275.686C414.117 312.549 386.274 381.569 377.254 448.628C363.529 529.02 367.45 608.235 431.372 666.667L450.195 686.275C457.646 694.902 444.313 705.098 438.038 695.686Z" fill="black"/>
<path d="M484.311 570.98C484.311 570.98 472.155 512.157 414.9 519.215C365.488 525.49 348.233 643.921 460.39 676.863" fill="white"/>
<path d="M455.293 625.49C446.274 620.392 439.999 611.765 439.607 601.176C439.999 593.333 441.176 584.314 439.215 576.471C438.038 569.02 430.195 567.059 424.313 567.451C418.038 568.627 414.117 576.471 412.94 582.745C412.94 583.137 412.548 584.314 412.548 584.706C412.156 586.667 409.019 586.667 408.235 584.706C403.137 569.412 414.509 552.549 430.98 554.51C454.117 556.078 457.254 580.392 452.94 598.823C450.587 606.667 453.725 613.725 458.038 620.392L458.823 621.569C460.784 623.921 457.646 627.059 455.293 625.49Z" fill="black"/>
<path d="M769.018 529.412C774.9 557.255 785.881 583.137 799.606 607.451C811.763 637.255 780.39 665.49 752.547 664.313C749.41 664.313 749.018 660 751.763 659.215C769.41 653.725 785.488 641.961 788.234 623.921C789.41 618.431 787.841 613.725 785.096 609.019C772.155 584.706 764.312 556.862 766.273 529.412C766.273 527.451 769.018 527.451 769.018 529.412Z" fill="black"/>
<path d="M482.352 571.373C473.332 548.235 453.725 526.275 427.45 526.667C425.097 526.275 421.176 527.059 418.823 527.059C412.156 527.451 406.666 529.804 401.568 534.51C376.47 559.608 380.783 603.922 401.176 631.765C408.234 641.569 417.254 650.196 427.45 657.255C437.646 664.314 449.019 669.804 461.176 674.51C463.921 675.294 462.744 679.608 459.999 679.216C433.725 673.726 408.627 660.784 391.372 639.216C364.705 607.059 359.215 553.333 390.979 521.961C398.038 515.686 407.842 510.98 417.646 510.98C420.783 510.98 425.489 510.196 428.627 510.98C445.097 511.765 460.783 520 470.979 532.941C479.999 543.922 485.097 557.255 486.666 570.588C486.666 572.941 483.136 573.726 482.352 571.373Z" fill="black"/>
<path d="M730.195 701.961C730.587 714.902 711.371 747.844 674.508 732.549C638.822 718.04 628.234 649.804 679.214 682.353C705.097 699.608 721.567 702.353 730.195 701.961Z" fill="white"/>
<path d="M738.43 702.353C727.842 705.883 717.646 702.746 707.842 699.216C693.332 694.118 681.567 684.706 667.842 678.04C649.018 669.02 641.567 681.177 646.665 698.824C651.763 717.648 668.234 734.118 688.626 734.902C706.665 736.863 725.881 720.393 724.312 701.961C722.744 694.118 734.116 691.765 736.077 699.216C735.685 712.55 727.45 721.961 718.822 729.804C701.567 743.922 675.293 740.785 658.038 727.844C644.704 717.255 633.724 700.393 636.077 682.353C636.861 674.51 644.312 665.491 652.548 665.099C671.763 663.53 683.136 676.471 698.038 685.099C709.802 691.765 723.136 700.001 736.861 698.824C739.214 698.04 740.783 701.177 738.43 702.353Z" fill="black"/>
<path d="M647.448 687.843C653.722 696.863 663.526 701.569 673.722 703.922C676.075 704.706 678.036 704.706 679.997 704.706C683.526 704.706 687.056 707.451 689.016 709.412C698.428 716.863 711.369 718.039 723.134 718.431C725.879 718.431 725.879 723.137 723.134 722.745C710.585 721.961 697.252 720.784 685.487 714.902C683.134 714.118 681.957 713.333 679.997 713.333C672.546 714.118 666.663 709.412 661.173 706.274C654.899 702.745 648.624 699.216 641.173 697.647C637.644 696.863 635.683 693.725 636.075 690.196C636.859 684.706 644.703 683.137 647.448 687.843Z" fill="black"/>
<path d="M680.39 487.843C689.018 489.02 695.685 480 692.547 471.373C690.979 466.667 688.234 462.353 683.92 459.608C670.587 451.373 620.783 450.589 594.508 469.412C570.979 486.667 641.175 482.353 680.39 487.843Z" fill="black"/>
<path d="M789.018 492.157C781.959 492.157 777.645 483.138 781.175 475.687C783.135 471.765 785.881 468.236 789.802 466.275C801.959 460.393 834.508 463.922 849.018 483.922C861.959 501.569 821.567 491.765 789.018 492.157Z" fill="black"/>
<path d="M665.881 538.432C645.881 529.804 623.136 532.157 602.351 536.863C599.998 537.647 598.43 534.51 600.391 532.941C618.43 518.04 652.547 516.079 667.057 536.471C668.234 537.255 667.449 538.824 665.881 538.432Z" fill="black"/>
<path d="M819.998 546.667C810.586 540 796.861 541.177 785.881 542.353C781.959 542.746 778.037 543.53 773.724 544.706C772.547 545.099 771.371 543.138 772.155 542.353L772.939 541.569C782.743 531.373 798.037 529.02 811.371 534.118C816.077 536.079 820.783 538.824 823.135 544.314C824.312 546.275 821.567 548.236 819.998 546.667Z" fill="black"/>
<path d="M890.98 357.254C917.647 334.117 956.863 299.215 916.47 250.588C876.078 201.96 801.568 220.784 801.568 220.784C801.568 220.784 817.255 176.078 773.725 160C721.176 140.784 572.157 198.823 572.157 198.823C561.176 198.431 550.588 198.039 540.784 198.039C412.157 195.294 374.902 276.47 373.333 349.411C373.333 349.411 329.804 363.921 318.823 433.333C315.294 455.686 311.765 484.313 320.392 518.823C343.529 612.941 405.882 678.431 445.49 711.764C460.392 700.784 434.118 685.49 436.078 667.451C350.98 625.882 369.412 525.098 414.902 519.215C449.804 514.902 468.235 535.294 476.863 551.764C480.392 556.47 433.333 294.117 704.706 380C758.431 396.862 813.725 411.764 851.372 384.705C855.686 392.941 858.431 402.745 859.216 417.254C859.216 417.254 924.706 391.764 914.902 365.098C911.765 356.078 890.98 357.254 890.98 357.254Z" fill="black"/>
<path d="M685.099 617.647C685.099 617.647 648.236 640.784 606.667 640.392C565.099 640 560.001 607.451 559.608 589.804C559.608 589.804 565.099 615.294 590.197 624.706C614.903 634.117 685.099 617.647 685.099 617.647Z" fill="black"/>
<path d="M803.527 613.333C803.527 613.333 812.547 624.313 824.704 632.157C832.939 637.647 843.919 631.764 843.919 621.961C843.919 621.961 821.174 623.137 803.527 613.333Z" fill="black"/>
<path d="M698.822 512.941C677.645 510.98 624.312 506.667 603.92 504.706L588.233 503.529C575.292 502.745 565.096 513.725 562.743 526.274C561.959 530.196 561.959 536.863 561.959 540.784V556.863C561.959 566.667 561.567 576.863 565.096 586.275C571.371 608.235 591.371 625.882 614.9 623.137C617.253 622.745 631.763 621.176 634.508 620.784L666.273 617.255C676.469 616.471 685.88 613.726 694.9 608.235C707.449 600.784 719.606 589.412 718.822 573.333L719.606 557.647C720.39 538.039 725.88 514.902 698.822 512.941ZM699.998 500C718.429 501.569 730.978 520.784 729.802 538.431C729.802 540.784 729.018 555.686 728.625 558.431C728.625 561.569 727.841 575.686 727.449 578.431C725.488 605.098 695.684 623.922 671.371 627.451C658.822 629.02 632.547 632.549 619.998 634.118C616.861 634.51 612.547 634.902 609.41 635.294C607.841 635.294 604.312 634.902 602.743 634.902C569.41 630.588 548.233 596.471 549.018 564.706C549.018 559.608 549.018 546.274 549.018 540.784C549.018 538.039 549.018 530.98 549.41 528.235C550.586 514.51 558.037 501.176 570.586 493.725C576.076 490.588 582.743 489.02 589.41 489.412L605.488 490.98C625.096 493.333 679.214 498.431 699.998 500Z" fill="black"/>
<path d="M790.979 506.274C799.607 505.098 841.96 500.392 849.803 499.608C851.764 499.608 856.862 498.823 858.43 498.823C875.293 496.47 883.136 514.902 884.705 528.627C885.489 540.784 884.705 552.549 885.097 564.314C885.097 572.549 884.313 580.784 882.352 588.627C877.254 609.804 862.352 632.157 837.646 625.098C831.764 623.921 819.999 622.353 814.509 621.176L808.627 620C797.254 618.039 787.842 610.196 781.568 601.568C769.803 587.843 772.156 569.412 770.979 552.941C769.411 536.47 769.803 510.98 790.979 506.274ZM792.548 517.647C780.391 523.137 783.529 541.568 783.529 552.549L784.313 576.078C784.705 590.98 796.47 605.882 810.587 609.804C814.117 610.588 823.921 612.549 827.842 613.333L839.215 615.686C867.45 624.706 878.43 585.49 878.038 563.921C876.862 545.882 882.352 524.314 869.411 509.804C866.274 506.666 863.136 505.882 859.607 506.666C857.646 507.059 852.548 507.843 850.979 508.235C843.136 509.804 800.783 516.47 792.548 517.647Z" fill="black"/>
<path d="M555.293 542.745C552.156 549.804 549.411 549.02 543.921 549.02L532.548 548.628C518.038 547.843 501.96 546.667 487.45 544.706C479.607 543.53 471.372 542.353 463.528 540.392C460.391 539.608 458.43 536.471 459.215 533.333C459.999 530.588 462.352 528.628 465.097 529.02L487.842 530.196L510.587 530.98C518.038 531.373 537.254 531.765 544.705 532.157C548.626 532.157 552.156 532.549 556.077 531.373C557.646 530.981 559.215 531.765 559.607 533.333C559.999 534.118 559.607 534.51 559.607 535.294L555.293 542.745Z" fill="black"/>
<path d="M722.352 534.51C736.47 526.667 773.724 515.686 780.783 536.863C783.921 542.353 775.685 547.451 772.156 541.961C772.156 542.745 770.195 541.961 769.411 541.961C754.509 540.784 739.215 543.137 724.313 544.314C718.038 545.098 716.862 536.863 722.352 534.51Z" fill="black"/>
<path d="M1130.2 330.588C1368.24 789.02 949.804 1306.27 450.981 1180C227.059 1124.31 47.0589 930.196 9.80403 702.353C-32.5489 475.686 69.804 232.157 261.177 103.922C523.53 -76.4704 887.059 -16.4704 1074.9 241.569C1076.08 242.745 1075.69 244.706 1074.12 245.883C1072.94 247.059 1070.98 246.667 1069.8 245.098C1043.92 211.765 1014.51 181.569 982.353 154.51C929.412 109.412 867.451 74.1179 801.961 50.1963C468.628 -70.588 102.745 130.196 29.804 478.824C-52.5489 869.412 279.608 1229.02 675.686 1175.29C981.177 1136.86 1208.24 854.902 1183.14 548.235C1177.65 474.118 1158.04 400.785 1125.49 333.334C1124.71 332.157 1125.49 330.588 1126.67 329.804C1127.84 329.02 1129.41 329.412 1130.2 330.588Z" fill="black"/>
</g>
</svg>
